<?xml version="1.0"?><svg width="744.094482" height="1052.36218" xmlns="http://www.w3.org/2000/svg">
 <g>
  <title>Layer 1</title>
  <path d="m44.481201,87.307899c30.122299,12.6679 75.489799,48.451103 102.343796,73.000099c37.406006,34.195007 35.421005,68.529007 55.125,101.436996c-54.593994,12.505005 -104.633293,55.705017 -140.406296,120.657013c-53.838301,94.598999 -17.085003,238.001007 28.375,321.624969c39.673294,72.980042 55.366302,148.002014 192.343292,189.187012c42.362,13.036987 132.549011,8.502991 176.593994,-3.156006c98.894989,-26.177979 166.823029,-60.740967 204.938019,-135.593994c49.119995,-96.466003 102.330994,-310.506989 53.593018,-416.218994c-25.886047,-56.147003 -130.226013,-83.465988 -195.468018,-85.125c-35.197021,-0.893997 -87.983002,16.011993 -136.968994,23.782013c4.576996,-25.058014 10.513977,-51.490005 18.718994,-69.500015c23.36499,-51.289993 54.557983,-36.577988 97.75,-78.843994c9.238983,-11.799995 -12.528015,-25.791 -26.25,-26c-1.960999,-0.029999 -3.764008,0.201004 -5.282013,0.780998c-59.533997,22.113007 -85.425995,91.338005 -95.5,150.250008c-6.572998,-40.956009 -21.320984,-82.258011 -45.75,-100.25c-72.178986,-53.161003 -228.631996,-62.632103 -284.155895,-66.031105l0.000103,0zm41.281197,15.781097c43.938606,3.084 167.710609,11.681 230.156609,59.905998c40.627991,31.376999 62.832001,140.703003 55.717987,176.063019c-0.087982,-1.593018 -0.191986,-3.188019 -0.281006,-4.781006c-10.606995,-26.755005 -33.800995,-56.65802 -61.75,-89.719009c-6.485992,-23.962997 7.496002,-32.158997 10.469025,-52.968994c-15.968018,11.800995 -19.307007,26.778992 -28.969025,40.155991c-26.191986,-12.341995 -47.661987,-13.675995 -69.124985,-13.405991c23.039001,10.404999 42.932999,14.507996 69.124985,31.218994c34.475006,36.621994 48.949005,67.646988 67.219025,99.719009c-24.263,-3.225006 -79.127014,-38.087006 -105.469009,-60.157013c-45.332001,-37.979996 -35.300003,-79.019989 -78.811996,-119.811996c-23.755005,-22.270004 -63.262009,-54.726997 -88.281609,-66.219002l0,0zm429.374626,167.749992c62.310974,1.554016 158.839966,30.309998 183.562988,82.906006c46.547974,99.024994 -1.117004,296.35498 -48.031006,386.718994c-36.403015,70.117981 -101.298035,102.478027 -195.75,127c-42.067017,10.921997 -128.197998,15.18103 -168.657013,2.968994c-130.82399,-38.579956 -146.932999,-108.237 -183.686996,-177.218994c-46.570896,-81.487 -78.513496,-212.665985 -27.093796,-301.280975c35.1418,-62.581024 84.691803,-98.118011 138.562805,-104.719025c2.769989,2.696014 5.780991,5.393005 9.092987,8.063019c25.710007,20.722992 76.341003,51.643982 109.593994,62.561981c-28.718994,9.949005 -72.682983,13.640015 -72.25,17.969025c0.525024,5.25 63.656006,14.825989 91.438019,6.311981c37.381989,-11.455994 96.72998,-55.553009 104.061981,-66.217987c4.229004,-6.152008 -62.658997,20.053986 -69.375,15.781006c-4.845978,-3.084015 26.027008,-32.355011 31.531006,-37.844025c-3.479004,0.401001 69.270996,-23.690979 97.000031,-23zm-229.062012,205.344025c-5.094025,5.109985 -16.01001,4.653992 -12.781006,14.218994c-2.334015,47.967987 7.071991,95.516022 24.531006,140.061981c8.526978,29.147034 8.895996,59.578003 15.093994,89.187988c8.760986,7.041992 23.265991,7.257019 32.592987,1.218018c2.407013,-25.080994 -13.510986,-49.934998 -7.531006,-74.468018c11.808014,-10.358948 25.618011,7.309998 35.75,13c27.615021,20.269043 52.274017,44.162048 75.594025,69.187012c12.444,-2.421997 24.082977,-10.375 29.936981,-21.75c-22.458008,-24.330994 -53.208984,-39.192017 -79.967987,-58.218994c-16.946014,-9.633972 -45.567993,-19.445007 -40.718994,-44.125c5.583984,-31.10199 31.251984,-54.419006 55.655975,-72.125c20.272003,-12.278015 39.335999,-15.018005 61.531006,-9.687012c7.608002,2.015991 13.938019,18.575012 6.093994,23.562012c23.146027,2.992981 47.428009,-10.000977 43.844025,-38.031006c-10.059021,-22.460999 -40.968018,-25.121002 -62.594025,-23c-34.029999,7.569 -66.484985,26.837036 -89.655975,52.781006c-10.281006,12.234985 -18.855011,25.789001 -28.219025,38.718994c-17.954987,2.622009 -18.796997,-20.83197 -21.093994,-33.187012c-1.289001,-18.856995 12.088013,-37.444977 9.188019,-55.312988c-14.244019,-8.216003 -31.812012,-5.459991 -47.313019,-8.280975c-1.208008,-1.201019 -0.737,-2.466003 0.063019,-3.75z" id="path616" stroke-width="1.20473pt" fill-rule="evenodd"/>
  <rect id="svg_1" height="303" width="303" y="437.637817" x="234.905518" stroke-width="0" stroke="#000000" fill="#ffffff"/>
 </g>

</svg>